<?xml version="1.0" encoding="UTF-8" standalone="no"?>
<svg
   width="124.82464mm"
   height="162.32056mm"
   viewBox="0 0 124.82464 162.32056"
   version="1.1"
   id="svg1"
   xml:space="preserve"
   xmlns="http://www.w3.org/2000/svg"
   xmlns:svg="http://www.w3.org/2000/svg"><defs
     id="defs1" /><g
     id="layer1"
     transform="translate(-51.009045,-34.476634)"><rect
       style="fill:#ffffff;fill-opacity:1;stroke-width:0.199457"
       id="rect1"
       width="23.806023"
       height="30.807796"
       x="51.009045"
       y="68.758316" /><path
       id="x20"
       style="fill:#000000;fill-opacity:1;stroke:#000000;stroke-width:0.271945;stroke-dasharray:none"
       d="m 65.954326,98.497417 -1.544978,-1.55156 m -0.0084,1.55336 1.556324,-1.549892" /><path
       id="ch20"
       style="fill:#000000;fill-opacity:1;stroke:#000000;stroke-width:0.264999;stroke-dasharray:none"
       d="m 64.965644,98.48432 -0.84623,-0.58527 m 0.731108,0.659648 1.556324,-1.549892" /><path
       id="x10"
       style="fill:#000000;fill-opacity:1;stroke:#000000;stroke-width:0.271945;stroke-dasharray:none"
       d="m 58.311687,98.586831 -1.544978,-1.55156 m -0.0084,1.55336 1.556324,-1.549892" /><path
       id="ch10"
       style="fill:#000000;fill-opacity:1;stroke:#000000;stroke-width:0.264999;stroke-dasharray:none"
       d="m 57.323005,98.573734 -0.84623,-0.58527 m 0.731108,0.659648 1.556324,-1.549892" /><path
       id="x9"
       style="fill:#000000;fill-opacity:1;stroke:#000000;stroke-width:0.271945;stroke-dasharray:none"
       d="m 58.377007,95.62265 -1.544978,-1.55156 m -0.0084,1.55336 1.556324,-1.549892" /><path
       id="ch9"
       style="fill:#000000;fill-opacity:1;stroke:#000000;stroke-width:0.264999;stroke-dasharray:none"
       d="m 57.388325,95.609553 -0.84623,-0.58527 m 0.731108,0.659648 1.556324,-1.549892" /><path
       id="x8"
       style="fill:#000000;fill-opacity:1;stroke:#000000;stroke-width:0.271945;stroke-dasharray:none"
       d="m 58.311326,92.665302 -1.544978,-1.55156 m -0.0084,1.55336 1.556324,-1.549892" /><path
       id="ch8"
       style="fill:#000000;fill-opacity:1;stroke:#000000;stroke-width:0.264999;stroke-dasharray:none"
       d="m 57.322644,92.652205 -0.84623,-0.58527 m 0.731108,0.659648 1.556324,-1.549892" /><path
       id="x7"
       style="fill:#000000;fill-opacity:1;stroke:#000000;stroke-width:0.271945;stroke-dasharray:none"
       d="m 58.484538,89.555879 -1.544978,-1.55156 m -0.0084,1.55336 1.556324,-1.549892" /><path
       id="ch7"
       style="fill:#000000;fill-opacity:1;stroke:#000000;stroke-width:0.264999;stroke-dasharray:none"
       d="m 57.495856,89.542782 -0.84623,-0.58527 m 0.731108,0.659648 1.556324,-1.549892" /><path
       id="x6"
       style="fill:#000000;fill-opacity:1;stroke:#000000;stroke-width:0.271945;stroke-dasharray:none"
       d="m 58.53613,86.540106 -1.544978,-1.55156 m -0.0084,1.55336 1.556324,-1.549892" /><path
       id="ch6"
       style="fill:#000000;fill-opacity:1;stroke:#000000;stroke-width:0.264999;stroke-dasharray:none"
       d="m 57.547448,86.527009 -0.84623,-0.58527 m 0.731108,0.659648 1.556324,-1.549892" /><path
       id="x5"
       style="fill:#000000;fill-opacity:1;stroke:#000000;stroke-width:0.271945;stroke-dasharray:none"
       d="m 58.440096,83.484552 -1.544978,-1.55156 m -0.0084,1.55336 1.556324,-1.549892" /><path
       id="ch5"
       style="fill:#000000;fill-opacity:1;stroke:#000000;stroke-width:0.264999;stroke-dasharray:none"
       d="m 57.451414,83.471455 -0.84623,-0.58527 m 0.731108,0.659648 1.556324,-1.549892" /><path
       id="x4"
       style="fill:#000000;fill-opacity:1;stroke:#000000;stroke-width:0.271945;stroke-dasharray:none"
       d="m 58.489304,80.536529 -1.544978,-1.55156 m -0.0084,1.55336 1.556324,-1.549892" /><path
       id="ch4"
       style="fill:#000000;fill-opacity:1;stroke:#000000;stroke-width:0.264999;stroke-dasharray:none"
       d="m 57.500622,80.523432 -0.84623,-0.58527 m 0.731108,0.659648 1.556324,-1.549892" /><path
       id="x2"
       style="fill:#000000;fill-opacity:1;stroke:#000000;stroke-width:0.271945;stroke-dasharray:none"
       d="m 58.334739,74.488719 -1.544978,-1.55156 m -0.0084,1.55336 1.556324,-1.549892" /><path
       id="ch2"
       style="fill:#000000;fill-opacity:1;stroke:#000000;stroke-width:0.264999;stroke-dasharray:none"
       d="m 57.346057,74.475622 -0.84623,-0.58527 M 57.230935,74.55 58.787259,73.000108" /><path
       id="x3"
       style="fill:#000000;fill-opacity:1;stroke:#000000;stroke-width:0.271945;stroke-dasharray:none"
       d="m 58.440096,77.53474 -1.544978,-1.55156 m -0.0084,1.55336 1.556324,-1.549892" /><path
       id="ch3"
       style="fill:#000000;fill-opacity:1;stroke:#000000;stroke-width:0.264999;stroke-dasharray:none"
       d="m 57.451414,77.521643 -0.84623,-0.58527 m 0.731108,0.659648 1.556324,-1.549892" /><text
       xml:space="preserve"
       style="font-size:3.175px;text-align:start;writing-mode:lr-tb;direction:ltr;text-anchor:start;fill:#000000;fill-opacity:1;stroke-width:0.264583"
       x="51.728336"
       y="71.752571"
       id="text2"><tspan
         id="tspan2"
         style="font-style:normal;font-variant:normal;font-weight:normal;font-stretch:normal;font-family:Arial;-inkscape-font-specification:Arial;stroke-width:0.264583"
         x="51.728336"
         y="71.752571">1.</tspan></text><text
       xml:space="preserve"
       style="font-size:3.175px;text-align:start;writing-mode:lr-tb;direction:ltr;text-anchor:start;fill:#000000;fill-opacity:1;stroke-width:0.264583"
       x="51.810318"
       y="74.78492"
       id="text2-3"><tspan
         id="tspan2-0"
         style="font-style:normal;font-variant:normal;font-weight:normal;font-stretch:normal;font-family:Arial;-inkscape-font-specification:Arial;stroke-width:0.264583"
         x="51.810318"
         y="74.78492">2.</tspan></text><text
       xml:space="preserve"
       style="font-size:3.175px;text-align:start;writing-mode:lr-tb;direction:ltr;text-anchor:start;fill:#000000;fill-opacity:1;stroke-width:0.264583"
       x="51.849075"
       y="77.78492"
       id="text2-3-2"><tspan
         id="tspan2-0-5"
         style="font-style:normal;font-variant:normal;font-weight:normal;font-stretch:normal;font-family:Arial;-inkscape-font-specification:Arial;stroke-width:0.264583"
         x="51.849075"
         y="77.78492">3.</tspan></text><text
       xml:space="preserve"
       style="font-size:3.175px;text-align:start;writing-mode:lr-tb;direction:ltr;text-anchor:start;fill:#000000;fill-opacity:1;stroke-width:0.264583"
       x="51.897137"
       y="80.752365"
       id="text2-3-2-9"><tspan
         id="tspan2-0-5-4"
         style="font-style:normal;font-variant:normal;font-weight:normal;font-stretch:normal;font-family:Arial;-inkscape-font-specification:Arial;stroke-width:0.264583"
         x="51.897137"
         y="80.752365">4.</tspan></text><text
       xml:space="preserve"
       style="font-size:3.175px;text-align:start;writing-mode:lr-tb;direction:ltr;text-anchor:start;fill:#000000;fill-opacity:1;stroke-width:0.264583"
       x="51.842876"
       y="83.752365"
       id="text2-3-2-9-2"><tspan
         id="tspan2-0-5-4-4"
         style="font-style:normal;font-variant:normal;font-weight:normal;font-stretch:normal;font-family:Arial;-inkscape-font-specification:Arial;stroke-width:0.264583"
         x="51.842876"
         y="83.752365">5.</tspan></text><text
       xml:space="preserve"
       style="font-size:3.175px;text-align:start;writing-mode:lr-tb;direction:ltr;text-anchor:start;fill:#000000;fill-opacity:1;stroke-width:0.264583"
       x="51.808769"
       y="86.78492"
       id="text2-3-2-9-2-4"><tspan
         id="tspan2-0-5-4-4-8"
         style="font-style:normal;font-variant:normal;font-weight:normal;font-stretch:normal;font-family:Arial;-inkscape-font-specification:Arial;stroke-width:0.264583"
         x="51.808769"
         y="86.78492">6.</tspan></text><text
       xml:space="preserve"
       style="font-size:3.175px;text-align:start;writing-mode:lr-tb;direction:ltr;text-anchor:start;fill:#000000;fill-opacity:1;stroke-width:0.264583"
       x="51.80722"
       y="89.752365"
       id="text2-3-2-9-2-4-9"><tspan
         id="tspan2-0-5-4-4-8-3"
         style="font-style:normal;font-variant:normal;font-weight:normal;font-stretch:normal;font-family:Arial;-inkscape-font-specification:Arial;stroke-width:0.264583"
         x="51.80722"
         y="89.752365">7.</tspan></text><text
       xml:space="preserve"
       style="font-size:3.175px;text-align:start;writing-mode:lr-tb;direction:ltr;text-anchor:start;fill:#000000;fill-opacity:1;stroke-width:0.264583"
       x="51.840073"
       y="92.78492"
       id="text2-3-2-9-2-4-9-2"><tspan
         id="tspan2-0-5-4-4-8-3-1"
         style="font-style:normal;font-variant:normal;font-weight:normal;font-stretch:normal;font-family:Arial;-inkscape-font-specification:Arial;stroke-width:0.264583"
         x="51.840073"
         y="92.78492">8.</tspan></text><text
       xml:space="preserve"
       style="font-size:3.175px;text-align:start;writing-mode:lr-tb;direction:ltr;text-anchor:start;fill:#000000;fill-opacity:1;stroke-width:0.264583"
       x="51.821171"
       y="95.78492"
       id="text2-3-2-9-2-4-9-2-1"><tspan
         id="tspan2-0-5-4-4-8-3-1-0"
         style="font-style:normal;font-variant:normal;font-weight:normal;font-stretch:normal;font-family:Arial;-inkscape-font-specification:Arial;stroke-width:0.264583"
         x="51.821171"
         y="95.78492">9.</tspan></text><text
       xml:space="preserve"
       style="font-size:3.175px;text-align:start;writing-mode:lr-tb;direction:ltr;text-anchor:start;fill:#000000;fill-opacity:1;stroke-width:0.264583"
       x="51.901863"
       y="98.78492"
       id="text2-3-2-9-2-4-9-2-1-6"><tspan
         id="tspan2-0-5-4-4-8-3-1-0-4"
         style="font-style:normal;font-variant:normal;font-weight:normal;font-stretch:normal;font-family:Arial;-inkscape-font-specification:Arial;stroke-width:0.264583"
         x="51.901863"
         y="98.78492">10.</tspan></text><text
       xml:space="preserve"
       style="font-size:3.175px;text-align:start;writing-mode:lr-tb;direction:ltr;text-anchor:start;fill:#000000;fill-opacity:1;stroke-width:0.264583"
       x="59.242088"
       y="71.661171"
       id="text2-8"><tspan
         id="tspan2-6"
         style="font-style:normal;font-variant:normal;font-weight:normal;font-stretch:normal;font-family:Arial;-inkscape-font-specification:Arial;stroke-width:0.264583"
         x="59.242088"
         y="71.661171">11.</tspan></text><text
       xml:space="preserve"
       style="font-size:3.175px;text-align:start;writing-mode:lr-tb;direction:ltr;text-anchor:start;fill:#000000;fill-opacity:1;stroke-width:0.264583"
       x="59.32407"
       y="74.69352"
       id="text2-3-28"><tspan
         id="tspan2-0-4"
         style="font-style:normal;font-variant:normal;font-weight:normal;font-stretch:normal;font-family:Arial;-inkscape-font-specification:Arial;stroke-width:0.264583"
         x="59.32407"
         y="74.69352">12.</tspan></text><text
       xml:space="preserve"
       style="font-size:3.175px;text-align:start;writing-mode:lr-tb;direction:ltr;text-anchor:start;fill:#000000;fill-opacity:1;stroke-width:0.264583"
       x="59.362827"
       y="77.693512"
       id="text2-3-2-7"><tspan
         id="tspan2-0-5-2"
         style="font-style:normal;font-variant:normal;font-weight:normal;font-stretch:normal;font-family:Arial;-inkscape-font-specification:Arial;stroke-width:0.264583"
         x="59.362827"
         y="77.693512">13.</tspan></text><text
       xml:space="preserve"
       style="font-size:3.175px;text-align:start;writing-mode:lr-tb;direction:ltr;text-anchor:start;fill:#000000;fill-opacity:1;stroke-width:0.264583"
       x="59.410889"
       y="80.660957"
       id="text2-3-2-9-4"><tspan
         id="tspan2-0-5-4-0"
         style="font-style:normal;font-variant:normal;font-weight:normal;font-stretch:normal;font-family:Arial;-inkscape-font-specification:Arial;stroke-width:0.264583"
         x="59.410889"
         y="80.660957">14.</tspan></text><text
       xml:space="preserve"
       style="font-size:3.175px;text-align:start;writing-mode:lr-tb;direction:ltr;text-anchor:start;fill:#000000;fill-opacity:1;stroke-width:0.264583"
       x="59.356628"
       y="83.660957"
       id="text2-3-2-9-2-6"><tspan
         id="tspan2-0-5-4-4-2"
         style="font-style:normal;font-variant:normal;font-weight:normal;font-stretch:normal;font-family:Arial;-inkscape-font-specification:Arial;stroke-width:0.264583"
         x="59.356628"
         y="83.660957">15.</tspan></text><text
       xml:space="preserve"
       style="font-size:3.175px;text-align:start;writing-mode:lr-tb;direction:ltr;text-anchor:start;fill:#000000;fill-opacity:1;stroke-width:0.264583"
       x="59.322521"
       y="86.693512"
       id="text2-3-2-9-2-4-99"><tspan
         id="tspan2-0-5-4-4-8-0"
         style="font-style:normal;font-variant:normal;font-weight:normal;font-stretch:normal;font-family:Arial;-inkscape-font-specification:Arial;stroke-width:0.264583"
         x="59.322521"
         y="86.693512">16.</tspan></text><text
       xml:space="preserve"
       style="font-size:3.175px;text-align:start;writing-mode:lr-tb;direction:ltr;text-anchor:start;fill:#000000;fill-opacity:1;stroke-width:0.264583"
       x="59.320972"
       y="89.660957"
       id="text2-3-2-9-2-4-9-8"><tspan
         id="tspan2-0-5-4-4-8-3-13"
         style="font-style:normal;font-variant:normal;font-weight:normal;font-stretch:normal;font-family:Arial;-inkscape-font-specification:Arial;stroke-width:0.264583"
         x="59.320972"
         y="89.660957">17.</tspan></text><text
       xml:space="preserve"
       style="font-size:3.175px;text-align:start;writing-mode:lr-tb;direction:ltr;text-anchor:start;fill:#000000;fill-opacity:1;stroke-width:0.264583"
       x="59.353825"
       y="92.693512"
       id="text2-3-2-9-2-4-9-2-11"><tspan
         id="tspan2-0-5-4-4-8-3-1-03"
         style="font-style:normal;font-variant:normal;font-weight:normal;font-stretch:normal;font-family:Arial;-inkscape-font-specification:Arial;stroke-width:0.264583"
         x="59.353825"
         y="92.693512">18.</tspan></text><text
       xml:space="preserve"
       style="font-size:3.175px;text-align:start;writing-mode:lr-tb;direction:ltr;text-anchor:start;fill:#000000;fill-opacity:1;stroke-width:0.264583"
       x="59.334923"
       y="95.693512"
       id="text2-3-2-9-2-4-9-2-1-4"><tspan
         id="tspan2-0-5-4-4-8-3-1-0-0"
         style="font-style:normal;font-variant:normal;font-weight:normal;font-stretch:normal;font-family:Arial;-inkscape-font-specification:Arial;stroke-width:0.264583"
         x="59.334923"
         y="95.693512">19.</tspan></text><text
       xml:space="preserve"
       style="font-size:3.175px;text-align:start;writing-mode:lr-tb;direction:ltr;text-anchor:start;fill:#000000;fill-opacity:1;stroke-width:0.264583"
       x="59.415615"
       y="98.693512"
       id="text2-3-2-9-2-4-9-2-1-6-3"><tspan
         id="tspan2-0-5-4-4-8-3-1-0-4-9"
         style="font-style:normal;font-variant:normal;font-weight:normal;font-stretch:normal;font-family:Arial;-inkscape-font-specification:Arial;stroke-width:0.264583"
         x="59.415615"
         y="98.693512">20.</tspan></text><text
       xml:space="preserve"
       style="font-size:3.175px;text-align:start;writing-mode:lr-tb;direction:ltr;text-anchor:start;fill:#000000;fill-opacity:1;stroke-width:0.264583"
       x="66.731461"
       y="71.796303"
       id="text2-9"><tspan
         id="tspan2-3"
         style="font-style:normal;font-variant:normal;font-weight:normal;font-stretch:normal;font-family:Arial;-inkscape-font-specification:Arial;stroke-width:0.264583"
         x="66.731461"
         y="71.796303">21.</tspan></text><text
       xml:space="preserve"
       style="font-size:3.175px;text-align:start;writing-mode:lr-tb;direction:ltr;text-anchor:start;fill:#000000;fill-opacity:1;stroke-width:0.264583"
       x="66.813446"
       y="74.828651"
       id="text2-3-3"><tspan
         id="tspan2-0-8"
         style="font-style:normal;font-variant:normal;font-weight:normal;font-stretch:normal;font-family:Arial;-inkscape-font-specification:Arial;stroke-width:0.264583"
         x="66.813446"
         y="74.828651">22.</tspan></text><text
       xml:space="preserve"
       style="font-size:3.175px;text-align:start;writing-mode:lr-tb;direction:ltr;text-anchor:start;fill:#000000;fill-opacity:1;stroke-width:0.264583"
       x="66.852203"
       y="77.828651"
       id="text2-3-2-0"><tspan
         id="tspan2-0-5-5"
         style="font-style:normal;font-variant:normal;font-weight:normal;font-stretch:normal;font-family:Arial;-inkscape-font-specification:Arial;stroke-width:0.264583"
         x="66.852203"
         y="77.828651">23.</tspan></text><text
       xml:space="preserve"
       style="font-size:3.175px;text-align:start;writing-mode:lr-tb;direction:ltr;text-anchor:start;fill:#000000;fill-opacity:1;stroke-width:0.264583"
       x="66.900261"
       y="80.796097"
       id="text2-3-2-9-6"><tspan
         id="tspan2-0-5-4-6"
         style="font-style:normal;font-variant:normal;font-weight:normal;font-stretch:normal;font-family:Arial;-inkscape-font-specification:Arial;stroke-width:0.264583"
         x="66.900261"
         y="80.796097">24.</tspan></text><text
       xml:space="preserve"
       style="font-size:3.175px;text-align:start;writing-mode:lr-tb;direction:ltr;text-anchor:start;fill:#000000;fill-opacity:1;stroke-width:0.264583"
       x="66.846001"
       y="83.796097"
       id="text2-3-2-9-2-40"><tspan
         id="tspan2-0-5-4-4-0"
         style="font-style:normal;font-variant:normal;font-weight:normal;font-stretch:normal;font-family:Arial;-inkscape-font-specification:Arial;stroke-width:0.264583"
         x="66.846001"
         y="83.796097">25.</tspan></text><g
       id="g5"
       transform="matrix(2.6610145,0,0,2.6610145,44.028682,34.476633)"
       style="fill:#ffffff">
	<g
   id="g4"
   style="fill:#ffffff">
		<path
   style="fill:#ffffff"
   d="M 36.839,16.135 C 36.407,15.746 35.933,15.598 35.472,15.61 v -0.009 c -0.515,-0.106 -1.086,-0.224 -1.662,0.145 -0.32,0.207 -1.278,1.393 -1.278,1.393 l 0.171,1.834 -1.744,-0.963 -1.234,2.732 c 0,0 -0.851,-1.534 -1.683,-2.958 -0.198,-0.339 -1.392,0.324 -1.575,0.02 0,0 0.674,-1.526 0.537,-1.739 -0.27,-0.42 -0.465,-0.685 -0.516,-0.665 0,0 -0.826,-0.947 -3.847,0.441 -0.385,0.117 -0.762,0.347 -1.101,0.75 -0.94,1.121 -1.882,2.241 -2.823,3.362 -1.021,-1.005 -2.027,-2.025 -2.986,-3.087 -2.192,-2.43 -5.764,1.164 -3.583,3.582 1.573,1.743 3.259,3.386 4.959,5.003 0.934,0.888 2.677,1.077 3.583,0 0.875,-1.042 1.75,-2.083 2.625,-3.125 l 0.443,4.673 -3.431,17.303 h 3.389 c 0,4.748 0,9.498 0,14.248 0,3.266 5.066,3.266 5.066,0 0,-4.75 0,-9.5 0,-14.248 h 1.568 c 0.153,5.243 1.199,10.461 3.842,15.049 1.631,2.83 6.009,0.281 4.375,-2.555 -2.206,-3.83 -3.02,-8.143 -3.157,-12.494 h 3.438 L 36.245,32.62 c 1.059,0.631 2.577,0.521 3.223,-0.93 1.027,-2.318 4.064,-8.171 4.064,-8.171 0,0 -4.918,-5.788 -6.693,-7.384 z M 35.532,29.417 35.098,27.473 35.055,27.47 c 0.064,-2.898 0.744,-2.912 0.748,-5.552 l -0.032,-0.607 c 0.791,0.819 1.522,1.694 2.198,2.614 -0.813,1.83 -1.626,3.661 -2.437,5.492 z"
   id="path1" />
		<path
   style="fill:#ffffff"
   d="m 29.639,8.67 c -0.256,1.747 3.454,3.378 3.454,3.378 0.078,-0.263 0.133,-0.527 0.162,-0.794 0.076,0.127 0.155,0.252 0.24,0.378 0.154,0.229 0.323,0.462 0.528,0.688 0.204,0.226 0.442,0.455 0.747,0.648 0.297,0.193 0.687,0.329 1.061,0.315 0.375,-0.014 0.699,-0.153 0.934,-0.343 0.236,-0.19 0.406,-0.417 0.529,-0.664 0.062,-0.125 0.111,-0.25 0.148,-0.385 0.02,-0.068 0.035,-0.136 0.051,-0.205 0.014,-0.072 0.025,-0.139 0.031,-0.215 -0.068,0.003 -0.133,0.017 -0.196,0.021 -0.062,0.009 -0.12,0.018 -0.182,0.025 -0.12,0.014 -0.233,0.032 -0.343,0.042 -0.213,0.023 -0.408,0.032 -0.562,0.009 -0.156,-0.023 -0.262,-0.075 -0.312,-0.137 -0.053,-0.06 -0.078,-0.107 -0.14,-0.183 C 35.671,11.101 35.505,10.793 35.361,10.439 35.217,10.08 35.078,9.678 34.934,9.259 34.788,8.841 34.635,8.404 34.454,7.956 34.268,7.509 34.062,7.052 33.772,6.565 33.626,6.321 33.46,6.069 33.219,5.8 33.098,5.665 32.956,5.527 32.774,5.392 32.592,5.26 32.36,5.123 32.083,5.068 31.807,5.01 31.511,5.053 31.294,5.165 31.076,5.274 30.928,5.439 30.835,5.608 30.689,5.885 30.654,6.181 30.72,6.517 30.657,6.488 30.593,6.46 30.527,6.434 28.435,5.595 26.19,6.747 25.512,9.01 c 0.001,0.002 2.974,1.878 4.127,-0.34 z"
   id="path2" />
		<path
   style="fill:#ffffff"
   d="M 48.423,2.922 C 48.675,1.724 47.98,0.505 46.808,0.121 45.851,-0.193 44.806,0.118 44.173,0.893 44.162,0.889 44.152,0.886 44.142,0.882 42.995,0.506 41.749,1.134 41.372,2.284 41.011,3.39 41.577,4.581 42.643,5.006 L 40.422,8.283 40.639,8.43 42.953,5.012 43.015,4.859 42.851,4.805 C 41.837,4.473 41.287,3.379 41.617,2.367 41.951,1.354 43.047,0.8 44.055,1.132 c 0.03,0.007 0.053,0.017 0.079,0.027 l 0.127,0.05 0.062,-0.08 c 0.557,-0.744 1.521,-1.048 2.402,-0.76 1.07,0.352 1.695,1.483 1.425,2.578 l -0.021,0.089 0.074,0.051 C 49.099,3.693 49.487,4.832 49.15,5.858 48.732,7.131 47.356,7.829 46.082,7.411 45.408,7.19 44.867,6.686 44.598,6.028 l -0.075,-0.182 -3.294,3.299 0.186,0.186 3.021,-3.026 c 0.32,0.642 0.883,1.13 1.566,1.355 C 47.412,8.122 48.94,7.351 49.4,5.94 49.762,4.831 49.36,3.604 48.423,2.922 Z"
   id="path3" />
		<path
   style="fill:#ffffff"
   d="m 15.957,6.613 c -0.407,0.787 -0.098,1.758 0.69,2.166 0.757,0.391 1.685,0.12 2.116,-0.601 l 2.11,1.989 0.131,-0.14 -2.2,-2.074 L 18.7,7.888 18.642,8.001 C 18.283,8.694 17.428,8.967 16.735,8.608 16.043,8.249 15.771,7.393 16.128,6.701 16.138,6.684 16.148,6.668 16.157,6.65 L 16.208,6.566 16.157,6.512 C 15.685,6.023 15.577,5.288 15.889,4.686 16.268,3.953 17.16,3.633 17.92,3.957 l 0.061,0.027 0.046,-0.049 c 0.542,-0.577 1.411,-0.725 2.113,-0.361 0.872,0.451 1.216,1.527 0.764,2.399 -0.238,0.461 -0.667,0.794 -1.173,0.913 l -0.142,0.033 2,2.768 0.156,-0.112 -1.834,-2.539 C 20.413,6.88 20.831,6.532 21.075,6.062 21.574,5.095 21.194,3.903 20.228,3.403 19.47,3.011 18.536,3.158 17.934,3.756 c -0.837,-0.321 -1.8,0.04 -2.214,0.841 -0.339,0.655 -0.238,1.447 0.249,1.995 -0.003,0.007 -0.007,0.013 -0.012,0.021 z"
   id="path4" />
	</g>
</g><path
       style="fill:#000000;fill-opacity:1;stroke-width:0.265;stroke-dasharray:none"
       d="m 55.251942,71.764117 1.682038,-1.752492 v 0"
       id="path5" /><path
       id="x1"
       style="fill:#000000;fill-opacity:1;stroke:#000000;stroke-width:0.271945;stroke-dasharray:none"
       d="m 58.311326,71.541324 -1.544978,-1.55156 m -0.0084,1.55336 1.556324,-1.549892" /><path
       id="ch1"
       style="fill:#000000;fill-opacity:1;stroke:#000000;stroke-width:0.264999;stroke-dasharray:none"
       d="m 57.322644,71.528227 -0.84623,-0.58527 m 0.731108,0.659648 1.556324,-1.549892" /><path
       id="x19"
       style="fill:#000000;fill-opacity:1;stroke:#000000;stroke-width:0.271945;stroke-dasharray:none"
       d="m 65.954348,95.517613 -1.544978,-1.55156 m -0.0084,1.55336 1.556324,-1.549892" /><path
       id="ch19"
       style="fill:#000000;fill-opacity:1;stroke:#000000;stroke-width:0.264999;stroke-dasharray:none"
       d="m 64.965666,95.504516 -0.84623,-0.58527 m 0.731108,0.659648 1.556324,-1.549892" /><path
       id="x18"
       style="fill:#000000;fill-opacity:1;stroke:#000000;stroke-width:0.271945;stroke-dasharray:none"
       d="m 65.888667,92.560265 -1.544978,-1.55156 m -0.0084,1.55336 1.556324,-1.549892" /><path
       id="ch18"
       style="fill:#000000;fill-opacity:1;stroke:#000000;stroke-width:0.264999;stroke-dasharray:none"
       d="m 64.899985,92.547168 -0.84623,-0.58527 m 0.731108,0.659648 1.556324,-1.549892" /><path
       id="x17"
       style="fill:#000000;fill-opacity:1;stroke:#000000;stroke-width:0.271945;stroke-dasharray:none"
       d="m 65.909697,89.450842 -1.544978,-1.55156 m -0.0084,1.55336 1.556324,-1.549892" /><path
       id="ch17"
       style="fill:#000000;fill-opacity:1;stroke:#000000;stroke-width:0.264999;stroke-dasharray:none"
       d="m 64.921015,89.437745 -0.84623,-0.58527 m 0.731108,0.659648 1.556324,-1.549892" /><path
       id="x16"
       style="fill:#000000;fill-opacity:1;stroke:#000000;stroke-width:0.271945;stroke-dasharray:none"
       d="m 65.961289,86.435069 -1.544978,-1.55156 m -0.0084,1.55336 1.556324,-1.549892" /><path
       id="ch16"
       style="fill:#000000;fill-opacity:1;stroke:#000000;stroke-width:0.264999;stroke-dasharray:none"
       d="m 64.972607,86.421972 -0.84623,-0.58527 m 0.731108,0.659648 1.556324,-1.549892" /><path
       id="x15"
       style="fill:#000000;fill-opacity:1;stroke:#000000;stroke-width:0.271945;stroke-dasharray:none"
       d="m 65.865255,83.379515 -1.544978,-1.55156 m -0.0084,1.55336 1.556324,-1.549892" /><path
       id="ch15"
       style="fill:#000000;fill-opacity:1;stroke:#000000;stroke-width:0.264999;stroke-dasharray:none"
       d="m 64.876573,83.366418 -0.84623,-0.58527 m 0.731108,0.659648 1.556324,-1.549892" /><path
       id="x14"
       style="fill:#000000;fill-opacity:1;stroke:#000000;stroke-width:0.271945;stroke-dasharray:none"
       d="m 65.914463,80.431492 -1.544978,-1.55156 m -0.0084,1.55336 1.556324,-1.549892" /><path
       id="ch14"
       style="fill:#000000;fill-opacity:1;stroke:#000000;stroke-width:0.264999;stroke-dasharray:none"
       d="m 64.925781,80.418395 -0.84623,-0.58527 m 0.731108,0.659648 1.556324,-1.549892" /><path
       id="x12"
       style="fill:#000000;fill-opacity:1;stroke:#000000;stroke-width:0.271945;stroke-dasharray:none"
       d="m 65.759898,74.383682 -1.544978,-1.55156 m -0.0084,1.55336 1.556324,-1.549892" /><path
       id="ch12"
       style="fill:#000000;fill-opacity:1;stroke:#000000;stroke-width:0.264999;stroke-dasharray:none"
       d="m 64.771216,74.370585 -0.84623,-0.58527 m 0.731108,0.659648 1.556324,-1.549892" /><path
       id="x11"
       style="fill:#000000;fill-opacity:1;stroke:#000000;stroke-width:0.271945;stroke-dasharray:none"
       d="m 65.810326,71.427258 -1.544978,-1.55156 m -0.0084,1.55336 1.556324,-1.549892" /><path
       id="ch11"
       style="fill:#000000;fill-opacity:1;stroke:#000000;stroke-width:0.264999;stroke-dasharray:none"
       d="m 64.821644,71.414161 -0.84623,-0.58527 m 0.731108,0.659648 1.556324,-1.549892" /><path
       id="x13"
       style="fill:#000000;fill-opacity:1;stroke:#000000;stroke-width:0.271945;stroke-dasharray:none"
       d="m 65.865255,77.429703 -1.544978,-1.55156 m -0.0084,1.55336 1.556324,-1.549892" /><path
       id="ch13"
       style="fill:#000000;fill-opacity:1;stroke:#000000;stroke-width:0.264999;stroke-dasharray:none"
       d="m 64.876573,77.416606 -0.84623,-0.58527 m 0.731108,0.659648 1.556324,-1.549892" /><path
       id="x25"
       style="fill:#000000;fill-opacity:1;stroke:#000000;stroke-width:0.271945;stroke-dasharray:none"
       d="m 73.555551,83.39574 -1.544978,-1.55156 m -0.0084,1.55336 1.556324,-1.549892" /><path
       id="ch25"
       style="fill:#000000;fill-opacity:1;stroke:#000000;stroke-width:0.264999;stroke-dasharray:none"
       d="m 72.566869,83.382643 -0.84623,-0.58527 m 0.731108,0.659648 1.556324,-1.549892" /><path
       id="x24"
       style="fill:#000000;fill-opacity:1;stroke:#000000;stroke-width:0.271945;stroke-dasharray:none"
       d="m 73.604759,80.447717 -1.544978,-1.55156 m -0.0084,1.55336 1.556324,-1.549892" /><path
       id="ch24"
       style="fill:#000000;fill-opacity:1;stroke:#000000;stroke-width:0.264999;stroke-dasharray:none"
       d="m 72.616077,80.43462 -0.84623,-0.58527 m 0.731108,0.659648 1.556324,-1.549892" /><path
       id="x22"
       style="fill:#000000;fill-opacity:1;stroke:#000000;stroke-width:0.271945;stroke-dasharray:none"
       d="m 73.450194,74.399907 -1.544978,-1.55156 m -0.0084,1.55336 1.556324,-1.549892" /><path
       id="ch22"
       style="fill:#000000;fill-opacity:1;stroke:#000000;stroke-width:0.264999;stroke-dasharray:none"
       d="m 72.461512,74.38681 -0.84623,-0.58527 m 0.731108,0.659648 1.556324,-1.549892" /><path
       id="x21"
       style="fill:#000000;fill-opacity:1;stroke:#000000;stroke-width:0.271945;stroke-dasharray:none"
       d="m 73.450326,71.458562 -1.544978,-1.55156 m -0.0084,1.55336 1.556324,-1.549892" /><path
       id="ch21"
       style="fill:#000000;fill-opacity:1;stroke:#000000;stroke-width:0.264999;stroke-dasharray:none"
       d="m 72.461644,71.445465 -0.84623,-0.58527 m 0.731108,0.659648 1.556324,-1.549892" /><path
       id="x23"
       style="fill:#000000;fill-opacity:1;stroke:#000000;stroke-width:0.271945;stroke-dasharray:none"
       d="m 73.555551,77.445928 -1.544978,-1.55156 m -0.0084,1.55336 1.556324,-1.549892" /><path
       id="ch23"
       style="fill:#000000;fill-opacity:1;stroke:#000000;stroke-width:0.264999;stroke-dasharray:none"
       d="m 72.566869,77.432831 -0.84623,-0.58527 m 0.731108,0.659648 1.556324,-1.549892" /></g></svg>
